<svg width="24" height="25" viewBox="0 0 24 25" fill="none" xmlns="http://www.w3.org/2000/svg">
<g clip-path="url(#clip0)">
<path d="M10.1899 12.394C9.61992 12.394 9.16992 12.869 9.16992 13.4485C9.16992 14.028 9.62992 14.503 10.1899 14.503C10.7599 14.503 11.2099 14.028 11.2099 13.4485C11.2199 12.869 10.7599 12.394 10.1899 12.394ZM13.8399 12.394C13.2699 12.394 12.8199 12.869 12.8199 13.4485C12.8199 14.028 13.2799 14.503 13.8399 14.503C14.4099 14.503 14.8599 14.028 14.8599 13.4485C14.8599 12.869 14.4099 12.394 13.8399 12.394Z" fill="url(#paint0_linear)"/>
<path d="M18.7 4.42334H5.3C4.17 4.42334 3.25 5.29734 3.25 6.38034V19.2243C3.25 20.3073 4.17 21.1813 5.3 21.1813H16.64L16.11 19.4238L17.39 20.5543L18.6 21.6183L20.75 23.4233V6.38034C20.75 5.29734 19.83 4.42334 18.7 4.42334ZM14.84 16.8303C14.84 16.8303 14.48 16.4218 14.18 16.0608C15.49 15.7093 15.99 14.9303 15.99 14.9303C15.58 15.1868 15.19 15.3673 14.84 15.4908C14.34 15.6903 13.86 15.8233 13.39 15.8993C12.5336 16.0491 11.6552 16.0459 10.8 15.8898C10.2979 15.7965 9.80587 15.6598 9.33 15.4813C9.07916 15.3897 8.83525 15.2818 8.6 15.1583C8.57 15.1393 8.54 15.1298 8.51 15.1108C8.49 15.1013 8.48 15.0918 8.47 15.0823C8.29 14.9873 8.19 14.9208 8.19 14.9208C8.19 14.9208 8.67 15.6808 9.94 16.0418C9.64 16.4028 9.27 16.8303 9.27 16.8303C7.06 16.7638 6.22 15.3863 6.22 15.3863C6.22 12.3273 7.66 9.84784 7.66 9.84784C9.1 8.82184 10.47 8.85034 10.47 8.85034L10.57 8.96434C8.77 9.45834 7.94 10.2088 7.94 10.2088C7.94 10.2088 8.16 10.0948 8.53 9.93334C9.6 9.48684 10.45 9.36334 10.8 9.33484C10.86 9.32534 10.91 9.31584 10.97 9.31584C12.7041 9.09286 14.4677 9.40597 16 10.2088C16 10.2088 15.21 9.49634 13.51 9.00234L13.65 8.85034C13.65 8.85034 15.02 8.82184 16.46 9.84784C16.46 9.84784 17.9 12.3273 17.9 15.3863C17.9 15.3863 17.05 16.7638 14.84 16.8303Z" fill="url(#paint1_linear)"/>
</g>
<defs>
<linearGradient id="paint0_linear" x1="9.16992" y1="12.394" x2="12.4756" y2="16.4475" gradientUnits="userSpaceOnUse">
<stop stop-color="#0038F5"/>
<stop offset="1" stop-color="#9F03FF"/>
</linearGradient>
<linearGradient id="paint1_linear" x1="3.25" y1="4.42334" x2="24.9083" y2="13.4897" gradientUnits="userSpaceOnUse">
<stop stop-color="#0038F5"/>
<stop offset="1" stop-color="#9F03FF"/>
</linearGradient>
<clipPath id="clip0">
<rect width="20" height="19" fill="white" transform="translate(2 4.42334)"/>
</clipPath>
</defs>
</svg>
