<svg width="24" height="25" viewBox="0 0 24 25" fill="none" xmlns="http://www.w3.org/2000/svg">
<path fill-rule="evenodd" clip-rule="evenodd" d="M2.77197 12.851C2.77197 17.4389 6.10411 21.254 10.4621 22.0276V15.3626H8.15506V12.7994H10.4621V10.7485C10.4621 8.44145 11.9486 7.16027 14.0511 7.16027C14.7171 7.16027 15.4353 7.26255 16.1013 7.36483V9.72339H14.9224C13.7942 9.72339 13.5382 10.2871 13.5382 11.0053V12.7994H15.999L15.5891 15.3626H13.5382V22.0276C17.8962 21.254 21.2283 17.4397 21.2283 12.851C21.2283 7.74703 17.0756 3.57129 12.0001 3.57129C6.92464 3.57129 2.77197 7.74703 2.77197 12.851Z" fill="url(#paint0_linear)"/>
<defs>
<linearGradient id="paint0_linear" x1="2.77197" y1="3.57129" x2="25.0208" y2="13.6831" gradientUnits="userSpaceOnUse">
<stop stop-color="#0038F5"/>
<stop offset="1" stop-color="#9F03FF"/>
</linearGradient>
</defs>
</svg>
