<svg width="19" height="20" viewBox="0 0 19 20" fill="none" xmlns="http://www.w3.org/2000/svg">
<path d="M18.1953 10.292C18.1953 9.18849 17.9989 8.13048 17.6388 7.15168C17.3926 10.0356 15.8551 11.517 14.2485 10.8271C12.7437 10.1807 13.7578 7.66062 13.8327 6.45812C13.959 4.41971 13.8263 2.08643 10.1236 0.146484C11.6621 3.08984 10.3018 4.91847 8.87503 5.02979C7.29204 5.15341 5.8423 3.66942 6.37746 1.26122C4.64462 2.5381 4.59432 4.68729 5.12894 6.07762C5.68657 7.52683 5.10646 8.73093 3.74663 8.86472C2.22679 9.01456 1.38231 7.23731 2.16096 4.40526C0.813438 5.992 0 8.047 0 10.292C0 15.3166 4.07308 19.3896 9.09766 19.3896C14.1222 19.3896 18.1953 15.3166 18.1953 10.292Z" fill="#F4900C"/>
<path d="M14.6601 12.9672C14.7393 14.6176 13.2895 15.2647 12.5093 14.9521C11.3822 14.501 11.6846 13.7261 11.3945 12.1206C11.1045 10.5151 9.98976 9.40041 8.33988 8.90967C9.54398 12.2988 7.67254 13.5479 6.6916 13.771C5.68978 13.999 4.68315 13.7705 4.56809 11.6267C3.39931 12.7901 2.67578 14.3998 2.67578 16.1787C2.67578 16.3756 2.68809 16.5694 2.70521 16.762C4.34815 18.3857 6.6049 19.3896 9.09766 19.3896C11.5904 19.3896 13.8472 18.3857 15.4901 16.762C15.5072 16.5694 15.5195 16.3756 15.5195 16.1787C15.5195 15.0083 15.207 13.9118 14.6601 12.9672Z" fill="#FFCC4D"/>
</svg>
