<svg width="21" height="20" viewBox="0 0 21 20" fill="none" xmlns="http://www.w3.org/2000/svg">
<path d="M5.73291 2.5L19.0662 15.8333" stroke="#888888" stroke-width="2"/>
<path fill-rule="evenodd" clip-rule="evenodd" d="M18.4867 9.91494C17.1543 7.59426 15.2766 5.93414 13.1741 5.20909L13.8262 3.31836C16.4731 4.23117 18.6984 6.26677 20.2212 8.91912C20.6395 9.64771 20.7391 10.5034 20.5204 11.2924L18.5931 10.7581C18.6709 10.4776 18.6353 10.1737 18.4867 9.91494ZM7.89634 5.35779C5.9549 6.14638 4.22757 7.74182 2.97986 9.91501C2.78471 10.2549 2.78471 10.6726 2.97987 11.0125C4.81067 14.2013 7.65292 16.1304 10.7333 16.1304C12.9208 16.1304 14.974 15.1643 16.6435 13.4657L18.0698 14.8677C16.0895 16.8825 13.5435 18.1304 10.7333 18.1304C6.75369 18.1304 3.33128 15.6413 1.24541 12.0083C0.696194 11.0518 0.69619 9.87579 1.2454 8.9192C2.67241 6.43371 4.71484 4.49139 7.14368 3.50481L7.89634 5.35779Z" fill="#888888"/>
<path d="M13.1575 9.85448C13.2898 10.381 13.2472 10.9363 13.036 11.4364C12.8248 11.9366 12.4565 12.3543 11.9868 12.6267C11.5172 12.899 10.9716 13.011 10.4327 12.9458C9.8937 12.8806 9.3906 12.6417 8.99941 12.2653C8.60823 11.8888 8.35021 11.3953 8.26436 10.8592C8.17852 10.3231 8.2695 9.77368 8.52357 9.2939C8.77764 8.81412 9.18098 8.43009 9.67264 8.19984C10.1643 7.96959 10.7175 7.90564 11.2488 8.01766" stroke="#888888" stroke-width="2"/>
</svg>
