<svg width="25" height="24" viewBox="0 0 25 24" fill="none" xmlns="http://www.w3.org/2000/svg">
<path fill-rule="evenodd" clip-rule="evenodd" d="M8.64123 2.6963C9.63935 2.65035 9.95758 2.64014 12.5001 2.64014C15.0426 2.64014 15.3608 2.6512 16.3581 2.6963C17.3553 2.74139 18.0361 2.90051 18.6317 3.13111C19.2554 3.36681 19.8213 3.73525 20.2893 4.21176C20.7658 4.6789 21.1334 5.2439 21.3682 5.86847C21.5997 6.4641 21.7579 7.14482 21.8039 8.14038C21.8498 9.1402 21.86 9.45843 21.86 12.0001C21.86 14.5426 21.849 14.8608 21.8039 15.8589C21.7588 16.8545 21.5997 17.5352 21.3682 18.1309C21.1334 18.7555 20.7652 19.3214 20.2893 19.7893C19.8213 20.2658 19.2554 20.6334 18.6317 20.8682C18.0361 21.0997 17.3553 21.2579 16.3598 21.3039C15.3608 21.3498 15.0426 21.36 12.5001 21.36C9.95758 21.36 9.63935 21.349 8.64123 21.3039C7.64568 21.2588 6.96495 21.0997 6.36932 20.8682C5.74469 20.6333 5.17875 20.2651 4.71091 19.7893C4.23472 19.3218 3.86623 18.7562 3.63111 18.1317C3.40051 17.5361 3.24225 16.8553 3.1963 15.8598C3.15035 14.86 3.14014 14.5417 3.14014 12.0001C3.14014 9.45758 3.1512 9.13935 3.1963 8.14209C3.24139 7.14482 3.40051 6.4641 3.63111 5.86847C3.86657 5.24397 4.23535 4.67832 4.71176 4.21091C5.17894 3.73483 5.74431 3.36634 6.36847 3.13111C6.9641 2.90051 7.64482 2.74225 8.64038 2.6963H8.64123ZM16.2824 4.38109C15.2953 4.33599 14.9992 4.32663 12.5001 4.32663C10.001 4.32663 9.70486 4.33599 8.71782 4.38109C7.80479 4.42278 7.30957 4.57509 6.97942 4.70358C6.5429 4.87376 6.23062 5.07543 5.90302 5.40302C5.59248 5.70514 5.35349 6.07293 5.20358 6.47942C5.07509 6.80957 4.92278 7.30479 4.88109 8.21782C4.83599 9.20486 4.82663 9.50098 4.82663 12.0001C4.82663 14.4992 4.83599 14.7953 4.88109 15.7824C4.92278 16.6954 5.07509 17.1906 5.20358 17.5208C5.35334 17.9266 5.59244 18.2951 5.90302 18.5971C6.20509 18.9077 6.57354 19.1468 6.97942 19.2966C7.30957 19.4251 7.80479 19.5774 8.71782 19.6191C9.70486 19.6642 10.0001 19.6735 12.5001 19.6735C15 19.6735 15.2953 19.6642 16.2824 19.6191C17.1954 19.5774 17.6906 19.4251 18.0208 19.2966C18.4573 19.1264 18.7696 18.9247 19.0971 18.5971C19.4077 18.2951 19.6468 17.9266 19.7966 17.5208C19.9251 17.1906 20.0774 16.6954 20.1191 15.7824C20.1642 14.7953 20.1735 14.4992 20.1735 12.0001C20.1735 9.50098 20.1642 9.20486 20.1191 8.21782C20.0774 7.30479 19.9251 6.80957 19.7966 6.47942C19.6264 6.0429 19.4247 5.73062 19.0971 5.40302C18.795 5.0925 18.4272 4.85352 18.0208 4.70358C17.6906 4.57509 17.1954 4.42278 16.2824 4.38109ZM11.3046 14.8855C11.9722 15.1634 12.7157 15.2009 13.4079 14.9916C14.1002 14.7823 14.6983 14.3392 15.1001 13.7378C15.5019 13.1365 15.6825 12.4144 15.611 11.6947C15.5395 10.975 15.2204 10.3025 14.7082 9.79199C14.3816 9.46565 13.9868 9.21577 13.5521 9.06034C13.1174 8.90491 12.6536 8.84779 12.1942 8.89311C11.7347 8.93842 11.2911 9.08504 10.8951 9.3224C10.4991 9.55976 10.1607 9.88197 9.90423 10.2658C9.64774 10.6497 9.47954 11.0856 9.41174 11.5423C9.34395 11.9989 9.37825 12.4649 9.51217 12.9067C9.64609 13.3485 9.87631 13.7552 10.1862 14.0973C10.4962 14.4395 10.8781 14.7087 11.3046 14.8855ZM9.09817 8.59817C9.54492 8.15142 10.0753 7.79705 10.659 7.55527C11.2427 7.31349 11.8683 7.18905 12.5001 7.18905C13.1319 7.18905 13.7575 7.31349 14.3412 7.55527C14.9249 7.79705 15.4553 8.15142 15.902 8.59817C16.3487 9.04492 16.7031 9.57528 16.9449 10.159C17.1867 10.7427 17.3111 11.3683 17.3111 12.0001C17.3111 12.6319 17.1867 13.2575 16.9449 13.8412C16.7031 14.4249 16.3487 14.9553 15.902 15.402C14.9998 16.3042 13.7761 16.8111 12.5001 16.8111C11.2241 16.8111 10.0004 16.3042 9.09817 15.402C8.19593 14.4998 7.68905 13.2761 7.68905 12.0001C7.68905 10.7241 8.19593 9.50041 9.09817 8.59817ZM18.3781 7.90553C18.4888 7.8011 18.5775 7.67552 18.6388 7.53622C18.7001 7.39692 18.7328 7.24674 18.735 7.09456C18.7372 6.94239 18.7089 6.79131 18.6517 6.65029C18.5945 6.50926 18.5095 6.38115 18.4019 6.27353C18.2943 6.16592 18.1662 6.08099 18.0252 6.02377C17.8841 5.96656 17.7331 5.93822 17.5809 5.94044C17.4287 5.94266 17.2785 5.97539 17.1392 6.03669C16.9999 6.09799 16.8744 6.18662 16.7699 6.29732C16.5668 6.51263 16.4556 6.79861 16.4599 7.09456C16.4643 7.39051 16.5837 7.67313 16.793 7.88243C17.0023 8.09172 17.2849 8.2112 17.5809 8.21552C17.8768 8.21983 18.1628 8.10864 18.3781 7.90553Z" fill="url(#paint0_linear)"/>
<defs>
<linearGradient id="paint0_linear" x1="3.14014" y1="2.64014" x2="25.7067" y2="12.8964" gradientUnits="userSpaceOnUse">
<stop stop-color="#0038F5"/>
<stop offset="1" stop-color="#9F03FF"/>
</linearGradient>
</defs>
</svg>
