<svg width="22" height="23" viewBox="0 0 22 23" fill="none" xmlns="http://www.w3.org/2000/svg">
<path fill-rule="evenodd" clip-rule="evenodd" d="M15.6287 3.28467H15.6145H15.5869H15.5591H15.5313H15.5035H15.4755H15.4474H15.4193H15.3911H15.3628H15.3344H15.3059H15.2774H15.2487H15.22H15.1912H15.1624H15.1334H15.1044H15.0753H15.0461H15.0169H14.9876H14.9582H14.9287H14.8992H14.8696H14.84H14.8102H14.7804H14.7506H14.7206H14.6906H14.6606H14.6304H14.6003H14.57H14.5397H14.5093H14.4789H14.4484H14.4179H14.3873H14.3567H14.326H14.2952H14.2644H14.2335H14.2026H14.1716H14.1406H14.1096H14.0784H14.0473H14.0161H13.9848H13.9535H13.9222H13.8908H13.8594H13.8279H13.7964H13.7649H13.7333H13.7017H13.67H13.6383H13.6066H13.5748H13.543H13.5112H13.4793H13.4474H13.4155H13.3835H13.3515H13.3195H13.2874H13.2554H13.2233H13.1911H13.159H13.1268H13.0946H13.0624H13.0302H12.9979H12.9656H12.9334H12.901H12.8687H12.8364H12.804H12.7716H12.7392H12.7068H12.6744H12.642H12.6096H12.5771H12.5447H12.5122H12.4797H12.4473H12.4148H12.3823H12.3498H12.3173H12.2848H12.2523H12.2198H12.1873H12.1548H12.1224H12.0899H12.0574H12.0249H11.9924H11.96H11.9275H11.895H11.8626H11.8302H11.7977H11.7653H11.7329H11.7005H11.6681H11.6358H11.6034H11.5711H11.5388H11.5065H11.4742H11.4419H11.4097H11.3775H11.3453H11.3131H11.2809H11.2488H11.2167H11.1846H11.1526H11.1206H11.0886H11.0566H11.0247H10.9928H10.9609H10.929H10.8972H10.8655H10.8337H10.802H10.7703H10.7387H10.7071H10.6756H10.644H10.6126H10.5811H10.5497H10.5184H10.4871H10.4558H10.4246H10.3934H10.3623H10.3313H10.3002H10.2693H10.2383H10.2075H10.1766H10.1459H10.1151H10.0845H10.0539H10.0233H9.99284H9.9624H9.93203H9.90171H9.87145H9.84126H9.81112H9.78105H9.75104H9.7211H9.69122H9.6614H9.63166H9.60198H9.57237H9.54283H9.51336H9.48396H9.45463H9.42537H9.39619H9.36708H9.33804H9.30908H9.2802H9.2514H9.22267H9.19402H9.16546H9.13697H9.10856H9.08024H9.052H9.02384H8.99577H8.96779H8.93989H8.91208H8.88435H8.85672H8.82917H8.80172H8.77435H8.74708H8.7199H8.69282H8.66583H8.63893H8.61213H8.58543H8.55883H8.53232H8.50591H8.47961H8.4534H8.4273H8.4013H8.37541H8.34961H8.32393H8.29835H8.27287H8.24751H8.22225H8.1971H8.17206H8.14714H8.12232H8.09762H8.07303H8.04856H8.0242H7.99995H7.97583H7.95182H7.92792H7.90415H7.8805H7.85697H7.83356H7.81027H7.78711H7.76407H7.74115H7.71836H7.6957H7.67317H7.65076H7.62848H7.60633H7.58431H7.56243H7.54067H7.51905H7.49757H7.47621H7.455H7.43392H7.41297H7.39217H7.3715H7.35097H7.33059H7.31034H7.29024H7.27028H7.25046H7.23079H7.21127H7.19189H7.17265H7.15357H7.13463H7.11585H7.09721H7.07872H7.06039H7.04221H7.02418H7.00631H6.98859H6.97103H6.95363H6.93638H6.91929H6.90236H6.88559H6.86898H6.85254H6.83626H6.82013H6.80418H6.78839H6.77276H6.7573H6.74201H6.72689H6.71194H6.69715H6.68254H6.6681H6.65383H6.63974H6.62582H6.61207H6.5985H6.58511H6.57189H6.55885H6.54599H6.53331H6.52081H6.50849H6.49636H6.48441H6.47264H6.46106H6.44966H6.43845H6.42742H6.41658C6.13324 3.28467 5.98721 3.35263 5.91139 3.40318C5.82931 3.45789 5.76211 3.53801 5.70685 3.64855C5.64962 3.763 5.61602 3.88956 5.59829 3.99594C5.58982 4.04676 5.58597 4.08693 5.58429 4.11047L5.58325 4.128V15.0347H12.8333C13.3855 15.0347 13.8333 15.4824 13.8333 16.0347V18.7747C13.8334 18.778 13.8337 18.7839 13.8343 18.7922C13.836 18.8157 13.8398 18.8559 13.8483 18.9067C13.866 19.0131 13.8996 19.1397 13.9568 19.2541C14.0121 19.3647 14.0793 19.4448 14.1614 19.4995C14.2372 19.55 14.3832 19.618 14.6666 19.618C14.9499 19.618 15.096 19.55 15.1718 19.4995C15.2539 19.4448 15.3211 19.3647 15.3763 19.2541C15.4336 19.1397 15.4671 19.0131 15.4849 18.9067C15.4933 18.8559 15.4972 18.8157 15.4989 18.7922C15.4995 18.7839 15.4998 18.778 15.4999 18.7747V6.868V4.118H16.4999C15.4999 4.118 15.4999 4.11751 15.4999 4.117L15.4999 4.11596L15.4999 4.11373L15.5 4.10874L15.5001 4.09662C15.5002 4.0876 15.5005 4.07672 15.5009 4.0641C15.5018 4.03888 15.5033 4.00651 15.506 3.96798C15.5115 3.89126 15.522 3.7882 15.5422 3.66714C15.5605 3.55718 15.5877 3.42697 15.6287 3.28467ZM3.58325 15.0347V4.118H4.58325C3.58325 4.118 3.58325 4.11751 3.58325 4.117L3.58325 4.11596L3.58326 4.11373L3.58329 4.10874L3.58344 4.09662C3.58358 4.0876 3.58383 4.07672 3.58425 4.0641C3.58509 4.03888 3.58662 4.00651 3.58937 3.96798C3.59485 3.89126 3.60533 3.7882 3.6255 3.66714C3.66506 3.42978 3.74605 3.098 3.91799 2.75412C4.09189 2.40632 4.36844 2.02811 4.80199 1.73908C5.2418 1.44587 5.78327 1.28467 6.41658 1.28467H6.42742H6.43845H6.44966H6.46106H6.47264H6.48441H6.49636H6.50849H6.52081H6.53331H6.54599H6.55885H6.57189H6.58511H6.5985H6.61207H6.62582H6.63974H6.65383H6.6681H6.68254H6.69715H6.71194H6.72689H6.74201H6.7573H6.77276H6.78839H6.80418H6.82013H6.83626H6.85254H6.86898H6.88559H6.90236H6.91929H6.93638H6.95363H6.97103H6.98859H7.00631H7.02418H7.04221H7.06039H7.07872H7.09721H7.11585H7.13463H7.15357H7.17265H7.19189H7.21127H7.23079H7.25046H7.27028H7.29024H7.31034H7.33059H7.35097H7.3715H7.39217H7.41297H7.43392H7.455H7.47621H7.49757H7.51905H7.54067H7.56243H7.58431H7.60633H7.62848H7.65076H7.67317H7.6957H7.71836H7.74115H7.76407H7.78711H7.81027H7.83356H7.85697H7.8805H7.90415H7.92792H7.95182H7.97583H7.99995H8.0242H8.04856H8.07303H8.09762H8.12232H8.14714H8.17206H8.1971H8.22225H8.24751H8.27287H8.29835H8.32393H8.34961H8.37541H8.4013H8.4273H8.4534H8.47961H8.50591H8.53232H8.55883H8.58543H8.61213H8.63893H8.66583H8.69282H8.7199H8.74708H8.77435H8.80172H8.82917H8.85672H8.88435H8.91208H8.93989H8.96779H8.99577H9.02384H9.052H9.08024H9.10856H9.13697H9.16546H9.19402H9.22267H9.2514H9.2802H9.30908H9.33804H9.36708H9.39619H9.42537H9.45463H9.48396H9.51336H9.54283H9.57237H9.60198H9.63166H9.6614H9.69122H9.7211H9.75104H9.78105H9.81112H9.84126H9.87145H9.90171H9.93203H9.9624H9.99284H10.0233H10.0539H10.0845H10.1151H10.1459H10.1766H10.2075H10.2383H10.2693H10.3002H10.3313H10.3623H10.3934H10.4246H10.4558H10.4871H10.5184H10.5497H10.5811H10.6126H10.644H10.6756H10.7071H10.7387H10.7703H10.802H10.8337H10.8655H10.8972H10.929H10.9609H10.9928H11.0247H11.0566H11.0886H11.1206H11.1526H11.1846H11.2167H11.2488H11.2809H11.3131H11.3453H11.3775H11.4097H11.4419H11.4742H11.5065H11.5388H11.5711H11.6034H11.6358H11.6681H11.7005H11.7329H11.7653H11.7977H11.8302H11.8626H11.895H11.9275H11.96H11.9924H12.0249H12.0574H12.0899H12.1224H12.1548H12.1873H12.2198H12.2523H12.2848H12.3173H12.3498H12.3823H12.4148H12.4473H12.4797H12.5122H12.5447H12.5771H12.6096H12.642H12.6744H12.7068H12.7392H12.7716H12.804H12.8364H12.8687H12.901H12.9334H12.9656H12.9979H13.0302H13.0624H13.0946H13.1268H13.159H13.1911H13.2233H13.2554H13.2874H13.3195H13.3515H13.3835H13.4155H13.4474H13.4793H13.5112H13.543H13.5748H13.6066H13.6383H13.67H13.7017H13.7333H13.7649H13.7964H13.8279H13.8594H13.8908H13.9222H13.9535H13.9848H14.0161H14.0473H14.0784H14.1096H14.1406H14.1716H14.2026H14.2335H14.2644H14.2952H14.326H14.3567H14.3873H14.4179H14.4484H14.4789H14.5093H14.5397H14.57H14.6003H14.6304H14.6606H14.6906H14.7206H14.7506H14.7804H14.8102H14.84H14.8696H14.8992H14.9287H14.9582H14.9876H15.0169H15.0461H15.0753H15.1044H15.1334H15.1624H15.1912H15.22H15.2487H15.2774H15.3059H15.3344H15.3628H15.3911H15.4193H15.4474H15.4755H15.5035H15.5313H15.5591H15.5869H15.6145H15.642H15.6694H15.6968H15.724H15.7512H15.7783H15.8052H15.8321H15.8589H15.8856H15.9122H15.9386H15.965H15.9913H16.0175H16.0436H16.0696H16.0954H16.1212H16.1469H16.1724H16.1979H16.2232H16.2485H16.2736H16.2986H16.3235H16.3483H16.373H16.3975H16.422H16.4463H16.4706H16.4947H16.5186H16.5425H16.5663H16.5899H16.6134H16.6368H16.66H16.6832H16.7062H16.7291H16.7518H16.7745H16.797H16.8194H16.8416H16.8638H16.8857H16.9076H16.9293H16.9509H16.9724H16.9937H17.0149H17.036H17.0569H17.0776H17.0983H17.1188H17.1391H17.1594H17.1794H17.1994H17.2192H17.2388H17.2583H17.2776H17.2968H17.3159H17.3348H17.3536H17.3722H17.3906H17.4089H17.4271H17.4451H17.4629H17.4806H17.4981H17.5155H17.5327H17.5498H17.5667H17.5834H17.6H17.6164H17.6327H17.6487H17.6647H17.6804H17.696H17.7114H17.7267H17.7418H17.7567H17.7715H17.786H17.8004H17.8147H17.8287H17.8426H17.8563H17.8699H17.8832H17.8964H17.9094H17.9222H17.9349H17.9473H17.9596H17.9717H17.9836H17.9954H18.0069H18.0183H18.0294H18.0404H18.0512H18.0618H18.0723H18.0825H18.0925H18.1024H18.112H18.1215H18.1307H18.1398H18.1487H18.1574H18.1658H18.1741H18.1822H18.1901H18.1978H18.2052H18.2125H18.2196H18.2264H18.2331H18.2395H18.2458H18.2518H18.2576H18.2633H18.2687H18.2739H18.2789H18.2836H18.2882H18.2925H18.2967H18.3006H18.3043H18.3077H18.311H18.3141H18.3169H18.3195H18.3218H18.324H18.3259H18.3276H18.3291H18.3304H18.3314H18.3322H18.3328H18.3331C18.3332 1.28467 18.3332 1.28467 18.3333 1.28467C18.9666 1.28467 19.508 1.44587 19.9478 1.73908C20.3814 2.02811 20.6579 2.40632 20.8318 2.75412C21.0038 3.098 21.0848 3.42978 21.1243 3.66714C21.1445 3.7882 21.155 3.89126 21.1605 3.96798C21.1632 4.00651 21.1647 4.03888 21.1656 4.0641C21.166 4.07672 21.1663 4.0876 21.1664 4.09662L21.1665 4.10874L21.1666 4.11373L21.1666 4.11596L21.1666 4.117C21.1666 4.11751 21.1666 4.118 20.1666 4.118H21.1666V6.868C21.1666 7.42029 20.7189 7.868 20.1666 7.868H17.4999V18.7847H16.4999C17.4999 18.7847 17.4999 18.7852 17.4999 18.7857V18.7867L17.4999 18.7889L17.4999 18.7939L17.4997 18.8061L17.4993 18.8259L17.4989 18.8386C17.4981 18.8638 17.4965 18.8962 17.4938 18.9347C17.4883 19.0114 17.4778 19.1145 17.4577 19.2355C17.4181 19.4729 17.3371 19.8047 17.1652 20.1485C16.9913 20.4963 16.7147 20.8746 16.2812 21.1636C15.8414 21.4568 15.2999 21.618 14.6666 21.618H14.6558H14.6448H14.6338H14.6226H14.6113H14.5999H14.5883H14.5767H14.5649H14.553H14.5409H14.5288H14.5165H14.5041H14.4916H14.4789H14.4662H14.4533H14.4403H14.4272H14.414H14.4007H14.3872H14.3737H14.36H14.3462H14.3323H14.3183H14.3041H14.2899H14.2755H14.2611H14.2465H14.2318H14.217H14.2021H14.1871H14.172H14.1568H14.1414H14.126H14.1105H14.0948H14.0791H14.0632H14.0472H14.0312H14.015H13.9987H13.9824H13.9659H13.9493H13.9326H13.9159H13.899H13.882H13.865H13.8478H13.8305H13.8132H13.7957H13.7782H13.7605H13.7428H13.7249H13.707H13.689H13.6708H13.6526H13.6343H13.6159H13.5974H13.5789H13.5602H13.5414H13.5226H13.5037H13.4846H13.4655H13.4463H13.4271H13.4077H13.3882H13.3687H13.3491H13.3294H13.3096H13.2897H13.2697H13.2497H13.2296H13.2094H13.1891H13.1687H13.1483H13.1278H13.1072H13.0865H13.0657H13.0449H13.024H13.003H12.9819H12.9608H12.9396H12.9183H12.8969H12.8755H12.854H12.8324H12.8108H12.7891H12.7673H12.7454H12.7235H12.7015H12.6794H12.6573H12.635H12.6128H12.5904H12.568H12.5455H12.523H12.5004H12.4777H12.455H12.4322H12.4094H12.3864H12.3634H12.3404H12.3173H12.2941H12.2709H12.2476H12.2243H12.2009H12.1774H12.1539H12.1303H12.1067H12.083H12.0593H12.0355H12.0116H11.9877H11.9637H11.9397H11.9157H11.8915H11.8674H11.8431H11.8189H11.7945H11.7702H11.7458H11.7213H11.6968H11.6722H11.6476H11.6229H11.5982H11.5735H11.5487H11.5238H11.4989H11.474H11.449H11.424H11.399H11.3739H11.3487H11.3235H11.2983H11.2731H11.2478H11.2224H11.197H11.1716H11.1462H11.1207H11.0952H11.0696H11.044H11.0184H10.9927H10.967H10.9413H10.9155H10.8897H10.8639H10.838H10.8121H10.7862H10.7602H10.7342H10.7082H10.6822H10.6561H10.63H10.6039H10.5777H10.5515H10.5253H10.4991H10.4729H10.4466H10.4203H10.394H10.3676H10.3412H10.3149H10.2884H10.262H10.2356H10.2091H10.1826H10.1561H10.1296H10.103H10.0765H10.0499H10.0233H9.99666H9.97004H9.9434H9.91674H9.89007H9.86339H9.83669H9.80998H9.78326H9.75653H9.72979H9.70304H9.67628H9.64951H9.62273H9.59594H9.56914H9.54234H9.51553H9.48871H9.46189H9.43506H9.40823H9.38139H9.35455H9.3277H9.30085H9.274H9.24715H9.2203H9.19344H9.16658H9.13973H9.11287H9.08602H9.05917H9.03232H9.00547H8.97863H8.95178H8.92495H8.89811H8.87128H8.84446H8.81764H8.79083H8.76403H8.73723H8.71044H8.68366H8.65689H8.63013H8.60338H8.57664H8.54991H8.52319H8.49648H8.46978H8.4431H8.41643H8.38978H8.36313H8.33651H8.3099H8.2833H8.25672H8.23016H8.20361H8.17708H8.15057H8.12408H8.09761H8.07116H8.04473H8.01832H7.99193H7.96556H7.93921H7.91289H7.88659H7.86031H7.83406H7.80783H7.78162H7.75545H7.7293H7.70317H7.67707H7.651H7.62496H7.59894H7.57296H7.547H7.52108H7.49518H7.46932H7.44349H7.41769H7.39192H7.36618H7.34048H7.31481H7.28918H7.26358H7.23802H7.21249H7.187H7.16155H7.13613H7.11075H7.08541H7.06011H7.03485H7.00962H6.98444H6.9593H6.9342H6.90914H6.88413H6.85916H6.83423H6.80934H6.7845H6.7597H6.73495H6.71024H6.68558H6.66097H6.6364H6.61189H6.58742H6.56299H6.53862H6.5143H6.49003H6.46581H6.44164H6.41752H6.39345H6.36944H6.34548H6.32157H6.29771H6.27392H6.25017H6.22648H6.20285H6.17928H6.15576H6.1323H6.10889H6.08555H6.06226H6.03904H6.01587H5.99277H5.96972H5.94674H5.92382H5.90096H5.87816H5.85543H5.83276H5.81016H5.78762H5.76515H5.74274H5.7204H5.69812H5.67592H5.65378H5.63171H5.60971H5.58777H5.56591H5.54412H5.5224H5.50075H5.47917H5.45766H5.43623H5.41487H5.39358H5.37237H5.35123H5.33017H5.30918H5.28827H5.26744H5.24668H5.226H5.2054H5.18488H5.16444H5.14408H5.12379H5.10359H5.08347H5.06343H5.04347H5.0236H5.00381H4.9841H4.96448H4.94494H4.92548H4.90611H4.88683H4.86763H4.84853H4.8295H4.81057H4.79173H4.77297H4.7543H4.73573H4.71724H4.69885H4.68054H4.66233H4.64421H4.62619H4.60825H4.59041H4.57267H4.55502H4.53747H4.52001H4.50265H4.48538H4.46821H4.45114H4.43417H4.4173H4.40053H4.38385H4.36728H4.35081H4.33444H4.31817H4.302H4.28593H4.26997H4.25412H4.23836H4.22272H4.20717H4.19174H4.1764H4.16118H4.14606H4.13105H4.11615H4.10136H4.08668H4.0721H4.05764H4.04329H4.02904H4.01491H4.0009H3.98699H3.9732H3.95952H3.94596H3.9325H3.91917H3.90595H3.89285H3.87986H3.86699H3.85424H3.8416H3.82909H3.81669H3.80441H3.79226H3.78022H3.7683H3.75651H3.74484H3.73329H3.72186H3.71056H3.69938H3.68832H3.67739H3.66659C3.03327 21.618 2.4918 21.4568 2.05199 21.1636C1.61844 20.8746 1.34189 20.4963 1.16799 20.1485C0.996051 19.8047 0.915065 19.4729 0.875504 19.2355C0.855328 19.1145 0.844854 19.0114 0.839374 18.9347C0.836622 18.8962 0.835095 18.8638 0.834255 18.8386C0.833834 18.8259 0.833583 18.8151 0.833438 18.8061L0.83329 18.7939L0.833261 18.7889L0.833254 18.7867L0.833252 18.7857C0.833252 18.7852 0.833252 18.7847 1.83325 18.7847H0.833252V16.0347C0.833252 15.4824 1.28097 15.0347 1.83325 15.0347H3.58325ZM17.4999 5.868V4.12799C17.5001 4.12467 17.5004 4.11873 17.501 4.11047C17.5026 4.08693 17.5065 4.04676 17.515 3.99594C17.5327 3.88956 17.5663 3.763 17.6235 3.64855C17.6788 3.53801 17.746 3.45789 17.8281 3.40318C17.9039 3.35263 18.0499 3.28467 18.3333 3.28467C18.6166 3.28467 18.7626 3.35263 18.8384 3.40318C18.9205 3.45789 18.9877 3.53801 19.043 3.64855C19.1002 3.763 19.1338 3.88956 19.1515 3.99594C19.16 4.04676 19.1639 4.08693 19.1655 4.11047L19.1666 4.128V5.868H17.4999ZM11.8755 19.2355C11.8938 19.3455 11.921 19.4757 11.9621 19.618H11.9397H11.9157H11.8915H11.8674H11.8431H11.8189H11.7945H11.7702H11.7458H11.7213H11.6968H11.6722H11.6476H11.6229H11.5982H11.5735H11.5487H11.5238H11.4989H11.474H11.449H11.424H11.399H11.3739H11.3487H11.3235H11.2983H11.2731H11.2478H11.2224H11.197H11.1716H11.1462H11.1207H11.0952H11.0696H11.044H11.0184H10.9927H10.967H10.9413H10.9155H10.8897H10.8639H10.838H10.8121H10.7862H10.7602H10.7342H10.7082H10.6822H10.6561H10.63H10.6039H10.5777H10.5515H10.5253H10.4991H10.4729H10.4466H10.4203H10.394H10.3676H10.3412H10.3149H10.2884H10.262H10.2356H10.2091H10.1826H10.1561H10.1296H10.103H10.0765H10.0499H10.0233H9.99666H9.97004H9.9434H9.91674H9.89007H9.86339H9.83669H9.80998H9.78326H9.75653H9.72979H9.70304H9.67628H9.64951H9.62273H9.59594H9.56914H9.54234H9.51553H9.48871H9.46189H9.43506H9.40823H9.38139H9.35455H9.3277H9.30085H9.274H9.24715H9.2203H9.19344H9.16658H9.13973H9.11287H9.08602H9.05917H9.03232H9.00547H8.97863H8.95178H8.92495H8.89811H8.87128H8.84446H8.81764H8.79083H8.76403H8.73723H8.71044H8.68366H8.65689H8.63013H8.60338H8.57664H8.54991H8.52319H8.49648H8.46978H8.4431H8.41643H8.38978H8.36313H8.33651H8.3099H8.2833H8.25672H8.23016H8.20361H8.17708H8.15057H8.12408H8.09761H8.07116H8.04473H8.01832H7.99193H7.96556H7.93921H7.91289H7.88659H7.86031H7.83406H7.80783H7.78162H7.75545H7.7293H7.70317H7.67707H7.651H7.62496H7.59894H7.57296H7.547H7.52108H7.49518H7.46932H7.44349H7.41769H7.39192H7.36618H7.34048H7.31481H7.28918H7.26358H7.23802H7.21249H7.187H7.16155H7.13613H7.11075H7.08541H7.06011H7.03485H7.00962H6.98444H6.9593H6.9342H6.90914H6.88413H6.85916H6.83423H6.80934H6.7845H6.7597H6.73495H6.71024H6.68558H6.66097H6.6364H6.61189H6.58742H6.56299H6.53862H6.5143H6.49003H6.46581H6.44164H6.41752H6.39345H6.36944H6.34548H6.32157H6.29771H6.27392H6.25017H6.22648H6.20285H6.17928H6.15576H6.1323H6.10889H6.08555H6.06226H6.03904H6.01587H5.99277H5.96972H5.94674H5.92382H5.90096H5.87816H5.85543H5.83276H5.81016H5.78762H5.76515H5.74274H5.7204H5.69812H5.67592H5.65378H5.63171H5.60971H5.58777H5.56591H5.54412H5.5224H5.50075H5.47917H5.45766H5.43623H5.41487H5.39358H5.37237H5.35123H5.33017H5.30918H5.28827H5.26744H5.24668H5.226H5.2054H5.18488H5.16444H5.14408H5.12379H5.10359H5.08347H5.06343H5.04347H5.0236H5.00381H4.9841H4.96448H4.94494H4.92548H4.90611H4.88683H4.86763H4.84853H4.8295H4.81057H4.79173H4.77297H4.7543H4.73573H4.71724H4.69885H4.68054H4.66233H4.64421H4.62619H4.60825H4.59041H4.57267H4.55502H4.53747H4.52001H4.50265H4.48538H4.46821H4.45114H4.43417H4.4173H4.40053H4.38385H4.36728H4.35081H4.33444H4.31817H4.302H4.28593H4.26997H4.25412H4.23836H4.22272H4.20717H4.19174H4.1764H4.16118H4.14606H4.13105H4.11615H4.10136H4.08668H4.0721H4.05764H4.04329H4.02904H4.01491H4.0009H3.98699H3.9732H3.95952H3.94596H3.9325H3.91917H3.90595H3.89285H3.87986H3.86699H3.85424H3.8416H3.82909H3.81669H3.80441H3.79226H3.78022H3.7683H3.75651H3.74484H3.73329H3.72186H3.71056H3.69938H3.68832H3.67739H3.66659C3.38324 19.618 3.23721 19.55 3.16139 19.4995C3.07931 19.4448 3.01211 19.3647 2.95685 19.2541C2.89962 19.1397 2.86602 19.0131 2.84829 18.9067C2.83982 18.8559 2.83597 18.8157 2.83429 18.7922L2.83325 18.7747V17.0347H4.58325H11.8333V18.7847H12.8333C11.8333 18.7847 11.8333 18.7852 11.8333 18.7857L11.8333 18.7867L11.8333 18.7889L11.8333 18.7939L11.8334 18.8061C11.8336 18.8151 11.8338 18.8259 11.8343 18.8386C11.8351 18.8638 11.8366 18.8962 11.8394 18.9347C11.8449 19.0114 11.8553 19.1145 11.8755 19.2355Z" fill="#555555"/>
<path d="M8.25 7.78467H12.8333" stroke="#555555" stroke-width="2" stroke-linecap="round" stroke-linejoin="round"/>
<path d="M8.25 11.4512H12.8333" stroke="#555555" stroke-width="2" stroke-linecap="round" stroke-linejoin="round"/>
</svg>
