<svg width="24" height="25" viewBox="0 0 24 25" fill="none" xmlns="http://www.w3.org/2000/svg">
<path fill-rule="evenodd" clip-rule="evenodd" d="M20.8783 3.18934C18.7294 1.0404 15.2452 1.0404 13.0963 3.18934L9.5646 6.72104C9.32163 6.96401 9.51863 7.34574 9.86191 7.33101L11.4185 7.26423C11.7083 7.25179 11.983 7.13106 12.1882 6.9259L14.5105 4.60355C15.8784 3.23566 18.0962 3.23566 19.4641 4.60355C20.832 5.97145 20.832 8.18924 19.4641 9.55713L15.9324 13.0888C14.5645 14.4567 12.3467 14.4567 10.9788 13.0888C10.9446 13.0547 10.9113 13.02 10.8788 12.9847C10.6089 12.692 10.2423 12.4846 9.84439 12.5016C9.08916 12.534 8.59484 13.3032 9.04832 13.908C9.20385 14.1154 9.37594 14.3144 9.5646 14.503C11.7135 16.652 15.1977 16.652 17.3466 14.503L20.8783 10.9713C23.0272 8.8224 23.0272 5.33828 20.8783 3.18934Z" fill="url(#paint0_linear)"/>
<path fill-rule="evenodd" clip-rule="evenodd" d="M13.3848 12.0349C14.1863 12.0077 14.6915 11.1754 14.1666 10.569C14.0785 10.4673 13.9861 10.3679 13.8894 10.2713C11.709 8.09083 8.17382 8.09083 5.99339 10.2713L2.57571 13.6889C0.395283 15.8694 0.395283 19.4045 2.57571 21.585C4.75614 23.7654 8.29131 23.7654 10.4717 21.585L13.8894 18.1673C14.0655 17.9912 13.9273 17.7086 13.6784 17.717L11.8772 17.7783C11.593 17.788 11.323 17.9053 11.1219 18.1064L9.05752 20.1708C7.65814 21.5701 5.3893 21.5701 3.98992 20.1708C2.59055 18.7714 2.59055 16.5025 3.98992 15.1032L7.40761 11.6855C8.80698 10.2861 11.0758 10.2861 12.4752 11.6855C12.6929 11.9031 12.9807 12.0487 13.2884 12.0382L13.3848 12.0349Z" fill="url(#paint1_linear)"/>
<defs>
<linearGradient id="paint0_linear" x1="16.9873" y1="-0.70166" x2="24.075" y2="12.8329" gradientUnits="userSpaceOnUse">
<stop stop-color="#0038F5"/>
<stop offset="1" stop-color="#9F03FF"/>
</linearGradient>
<linearGradient id="paint1_linear" x1="9.94141" y1="6.32324" x2="17.0663" y2="20.0679" gradientUnits="userSpaceOnUse">
<stop stop-color="#0038F5"/>
<stop offset="1" stop-color="#9F03FF"/>
</linearGradient>
</defs>
</svg>
