<svg width="26" height="26" viewBox="0 0 26 26" fill="none" xmlns="http://www.w3.org/2000/svg">
<path d="M25.5006 12.0636L18.6955 9.54463L16.1544 1.21622C16.0565 0.89504 15.7591 0.674805 15.4234 0.674805C15.0876 0.674805 14.7902 0.89504 14.6923 1.21622L12.1519 9.54463L5.34606 12.0636C5.04553 12.1752 4.8467 12.4605 4.8467 12.7809C4.8467 13.1005 5.04553 13.3873 5.34606 13.4982L12.1481 16.0163L14.69 24.5986C14.7864 24.9229 15.0846 25.1454 15.4234 25.1454C15.7614 25.1454 16.0604 24.9229 16.1567 24.5979L18.6986 16.0156L25.5014 13.4974C25.8004 13.3873 26 13.1013 26 12.7809C26 12.4612 25.8004 12.1752 25.5006 12.0636Z" fill="#FFAC33"/>
<path d="M10.2065 20.4759L8.437 19.8213L7.74876 17.2978C7.65853 16.9644 7.35647 16.7335 7.01159 16.7335C6.66671 16.7335 6.36465 16.9644 6.27365 17.297L5.58541 19.8206L3.81665 20.4752C3.51612 20.586 3.31729 20.8728 3.31729 21.1925C3.31729 21.5121 3.51612 21.7989 3.81665 21.9098L5.57623 22.562L6.26982 25.3318C6.35547 25.6713 6.66059 25.9099 7.01159 25.9099C7.36259 25.9099 7.66771 25.6713 7.75335 25.331L8.44694 22.5613L10.2065 21.909C10.5071 21.7989 10.7059 21.5121 10.7059 21.1925C10.7059 20.8728 10.5071 20.586 10.2065 20.4759ZM6.88923 3.91011L5.08147 3.24099L4.41159 1.43246C4.30071 1.13193 4.01471 0.933105 3.69429 0.933105C3.37465 0.933105 3.08865 1.13193 2.977 1.43246L2.30788 3.24099L0.499353 3.91011C0.198824 4.02175 0 4.30775 0 4.6274C0 4.94705 0.198824 5.23381 0.499353 5.34469L2.30788 6.01381L2.977 7.82234C3.08865 8.12287 3.37465 8.32169 3.69429 8.32169C4.01394 8.32169 4.29994 8.12287 4.41159 7.82234L5.08071 6.01381L6.88923 5.34469C7.18976 5.23305 7.38859 4.94705 7.38859 4.6274C7.38859 4.30775 7.18976 4.02175 6.88923 3.91011Z" fill="#FFCC4D"/>
</svg>
