<svg width="24" height="25" viewBox="0 0 24 25" fill="none" xmlns="http://www.w3.org/2000/svg">
<path d="M12.3983 3.46241C13.377 3.44727 14.3501 3.45624 15.3221 3.44727C15.381 4.592 15.7926 5.75805 16.6306 6.56738C17.4668 7.39691 18.6497 7.77661 19.8006 7.90505V10.9164C18.7221 10.881 17.6385 10.6567 16.6597 10.1923C16.2335 9.99934 15.8364 9.75087 15.4477 9.4968C15.4427 11.6819 15.4567 13.8643 15.4337 16.0405C15.3754 17.0859 15.0304 18.1263 14.4224 18.9878C13.4443 20.422 11.7465 21.3569 10.0028 21.3861C8.93322 21.4472 7.86476 21.1556 6.95335 20.6183C5.44293 19.7276 4.38008 18.0972 4.22528 16.3473C4.20578 15.9767 4.20279 15.6054 4.21631 15.2345C4.35092 13.8116 5.05481 12.4503 6.14738 11.5243C7.38578 10.4458 9.12055 9.93203 10.7448 10.236C10.76 11.3437 10.7157 12.4503 10.7157 13.5581C9.97363 13.318 9.10653 13.3853 8.45816 13.8357C7.9838 14.1482 7.62533 14.6079 7.43794 15.1442C7.28314 15.5233 7.32745 15.9446 7.33642 16.3473C7.51422 17.5744 8.69429 18.6059 9.954 18.4943C10.7891 18.4853 11.5895 18.0007 12.0247 17.2912C12.1655 17.0427 12.3231 16.7887 12.3315 16.4964C12.405 15.1588 12.3758 13.8267 12.3848 12.489C12.391 9.47437 12.3758 6.46811 12.3988 3.46297L12.3983 3.46241Z" fill="url(#paint0_linear)"/>
<defs>
<linearGradient id="paint0_linear" x1="4.20801" y1="3.44727" x2="23.8281" y2="11.1946" gradientUnits="userSpaceOnUse">
<stop stop-color="#0038F5"/>
<stop offset="1" stop-color="#9F03FF"/>
</linearGradient>
</defs>
</svg>
