<svg width="23" height="18" viewBox="0 0 23 18" fill="none" xmlns="http://www.w3.org/2000/svg">
<path d="M22.0185 2.3244C21.2294 2.67404 20.3818 2.91028 19.4907 3.01706C20.4102 2.46689 21.098 1.60099 21.426 0.580931C20.5622 1.09404 19.6167 1.45521 18.6308 1.64875C17.9678 0.940837 17.0896 0.471622 16.1326 0.313952C15.1756 0.156282 14.1933 0.318977 13.3382 0.776778C12.4832 1.23458 11.8032 1.96187 11.4038 2.84574C11.0044 3.72961 10.908 4.72061 11.1296 5.66487C9.37923 5.57698 7.66689 5.12203 6.10372 4.32954C4.54054 3.53704 3.16147 2.42472 2.05601 1.06476C1.67802 1.71678 1.46068 2.47276 1.46068 3.27787C1.46026 4.00266 1.63874 4.71635 1.9803 5.35561C2.32185 5.99487 2.81592 6.53995 3.41866 6.94247C2.71964 6.92022 2.03604 6.73135 1.42477 6.39155V6.44825C1.4247 7.46479 1.77633 8.45005 2.42 9.23685C3.06366 10.0236 3.95972 10.5635 4.95612 10.7649C4.30767 10.9404 3.62781 10.9662 2.9679 10.8405C3.24903 11.7151 3.79664 12.48 4.53407 13.028C5.27149 13.576 6.16182 13.8797 7.08041 13.8965C5.52106 15.1206 3.59526 15.7846 1.61282 15.7817C1.26165 15.7818 0.910778 15.7613 0.562012 15.7203C2.5743 17.0141 4.91675 17.7008 7.3091 17.6981C15.4075 17.6981 19.8347 10.9907 19.8347 5.17348C19.8347 4.98449 19.8299 4.79361 19.8214 4.60461C20.6826 3.98185 21.4259 3.21068 22.0166 2.32723L22.0185 2.3244Z" fill="url(#paint0_linear)"/>
<defs>
<linearGradient id="paint0_linear" x1="0.562012" y1="0.255371" x2="24.3386" y2="13.5482" gradientUnits="userSpaceOnUse">
<stop stop-color="#0038F5"/>
<stop offset="1" stop-color="#9F03FF"/>
</linearGradient>
</defs>
</svg>
