<svg width="24" height="25" viewBox="0 0 24 25" fill="none" xmlns="http://www.w3.org/2000/svg">
<path d="M21.7624 7.5147C21.647 7.10318 21.4223 6.73062 21.1121 6.43661C20.7932 6.13356 20.4023 5.91678 19.9763 5.80673C18.3821 5.38653 11.9951 5.38653 11.9951 5.38653C9.3324 5.35624 6.67037 5.48948 4.02402 5.78551C3.59804 5.90369 3.20787 6.12531 2.8882 6.43067C2.57412 6.73287 2.34661 7.10553 2.22777 7.51385C1.94228 9.05182 1.80357 10.6134 1.81351 12.1776C1.80333 13.7404 1.94169 15.3016 2.22777 16.8414C2.34407 17.2481 2.57072 17.619 2.88566 17.9187C3.2006 18.2183 3.59278 18.4348 4.02402 18.5494C5.63945 18.9688 11.9951 18.9687 11.9951 18.9687C14.6612 18.9991 17.3266 18.8658 19.9763 18.5698C20.4023 18.4597 20.7932 18.2429 21.1121 17.9399C21.4262 17.6402 21.6495 17.2676 21.7615 16.8618C22.0545 15.3244 22.1969 13.7622 22.1868 12.1972C22.2089 10.6255 22.0666 9.05591 21.7624 7.51385V7.5147ZM9.96454 15.0842V9.2719L15.2786 12.1785L9.96454 15.0842Z" fill="url(#paint0_linear)"/>
<defs>
<linearGradient id="paint0_linear" x1="1.81299" y1="5.38232" x2="22.0524" y2="19.1735" gradientUnits="userSpaceOnUse">
<stop stop-color="#0038F5"/>
<stop offset="1" stop-color="#9F03FF"/>
</linearGradient>
</defs>
</svg>
